<svg width="149" height="72" viewBox="0 0 149 72" fill="none" xmlns="http://www.w3.org/2000/svg">
<path d="M11.2601 56.321V71.2528H2.92491V36.3438H10.9874V49.8778H11.2772C11.8681 48.2642 12.834 47.0028 14.1749 46.0938C15.5272 45.1847 17.1806 44.7301 19.1351 44.7301C20.976 44.7301 22.5783 45.1392 23.942 45.9574C25.3056 46.7642 26.3624 47.9063 27.1124 49.3835C27.8738 50.8608 28.2488 52.5881 28.2374 54.5653V71.2528H19.9022V56.2017C19.9135 54.7472 19.5499 53.6108 18.8113 52.7926C18.0726 51.9744 17.0329 51.5653 15.692 51.5653C14.817 51.5653 14.0442 51.7585 13.3738 52.1449C12.7147 52.5199 12.1976 53.0597 11.8226 53.7642C11.459 54.4688 11.2715 55.321 11.2601 56.321Z" fill="white"/>
<path d="M40.8212 71.696C39.1508 71.696 37.6678 71.4176 36.3724 70.8608C35.0883 70.2926 34.0712 69.4403 33.3212 68.304C32.5826 67.1563 32.2133 65.7188 32.2133 63.9915C32.2133 62.5369 32.4689 61.3097 32.9803 60.3097C33.4917 59.3097 34.1962 58.4972 35.0939 57.8722C35.9917 57.2472 37.0258 56.7756 38.1962 56.4574C39.3667 56.1278 40.6167 55.9063 41.9462 55.7926C43.4349 55.6563 44.6337 55.5142 45.5428 55.3665C46.4519 55.2074 47.111 54.9858 47.5201 54.7017C47.9405 54.4063 48.1508 53.9915 48.1508 53.4574V53.3722C48.1508 52.4972 47.8496 51.821 47.2474 51.3438C46.6451 50.8665 45.8326 50.6278 44.8099 50.6278C43.7076 50.6278 42.8212 50.8665 42.1508 51.3438C41.4803 51.821 41.0542 52.4801 40.8724 53.321L33.1849 53.0483C33.4121 51.4574 33.9974 50.0369 34.9405 48.7869C35.8951 47.5256 37.2019 46.5369 38.861 45.821C40.5314 45.0938 42.5371 44.7301 44.878 44.7301C46.5485 44.7301 48.0883 44.929 49.4974 45.3267C50.9064 45.7131 52.1337 46.2813 53.1792 47.0313C54.2246 47.7699 55.0314 48.679 55.5996 49.7585C56.1792 50.8381 56.4689 52.071 56.4689 53.4574V71.2528H48.628V67.6051H48.4235C47.9576 68.4915 47.361 69.2415 46.6337 69.8551C45.9178 70.4688 45.0712 70.929 44.0939 71.2358C43.128 71.5426 42.0371 71.696 40.8212 71.696ZM43.3951 66.2415C44.2928 66.2415 45.0996 66.0597 45.8155 65.696C46.5428 65.3324 47.1224 64.8324 47.5542 64.196C47.986 63.5483 48.2019 62.7983 48.2019 61.946V59.4574C47.9633 59.5824 47.6735 59.696 47.3326 59.7983C47.003 59.9006 46.6394 59.9972 46.2417 60.0881C45.8439 60.179 45.4349 60.2585 45.0144 60.3267C44.5939 60.3949 44.1905 60.4574 43.8042 60.5142C43.0201 60.6392 42.3496 60.8324 41.7928 61.0938C41.2474 61.3551 40.8269 61.696 40.5314 62.1165C40.2474 62.5256 40.1053 63.0142 40.1053 63.5824C40.1053 64.446 40.4121 65.1051 41.0258 65.5597C41.6508 66.0142 42.4405 66.2415 43.3951 66.2415Z" fill="white"/>
<path d="M61.5655 71.2528V36.3438H69.9008V49.554H70.0712C70.4121 48.7585 70.8951 47.9915 71.5201 47.2528C72.1564 46.5142 72.9633 45.9119 73.9405 45.446C74.9292 44.9688 76.111 44.7301 77.486 44.7301C79.3042 44.7301 81.003 45.2074 82.5826 46.1619C84.1735 47.1165 85.4576 48.5881 86.4349 50.5767C87.4121 52.5653 87.9008 55.0994 87.9008 58.179C87.9008 61.1449 87.4292 63.6278 86.486 65.6278C85.5542 67.6278 84.2928 69.1278 82.7019 70.1278C81.1224 71.1278 79.3667 71.6278 77.4349 71.6278C76.1167 71.6278 74.9746 71.4119 74.0087 70.9801C73.0428 70.5483 72.2303 69.9801 71.5712 69.2756C70.9235 68.571 70.4235 67.8153 70.0712 67.0085H69.8155V71.2528H61.5655ZM69.7303 58.1619C69.7303 59.571 69.9178 60.7983 70.2928 61.8438C70.6792 62.8892 71.2303 63.7017 71.9462 64.2813C72.6735 64.8494 73.5428 65.1335 74.5542 65.1335C75.5769 65.1335 76.4462 64.8494 77.1621 64.2813C77.878 63.7017 78.4178 62.8892 78.7814 61.8438C79.1564 60.7983 79.3439 59.571 79.3439 58.1619C79.3439 56.7528 79.1564 55.5313 78.7814 54.4972C78.4178 53.4631 77.878 52.6619 77.1621 52.0938C76.4576 51.5256 75.5883 51.2415 74.5542 51.2415C73.5314 51.2415 72.6621 51.5199 71.9462 52.0767C71.2303 52.6335 70.6792 53.429 70.2928 54.4631C69.9178 55.4972 69.7303 56.7301 69.7303 58.1619Z" fill="white"/>
<path d="M92.2687 71.2528V45.071H100.604V71.2528H92.2687ZM96.4448 42.0199C95.2743 42.0199 94.2687 41.6335 93.4278 40.8608C92.5868 40.0767 92.1664 39.1335 92.1664 38.0313C92.1664 36.9403 92.5868 36.0085 93.4278 35.2358C94.2687 34.4517 95.2743 34.0597 96.4448 34.0597C97.6266 34.0597 98.6323 34.4517 99.4618 35.2358C100.303 36.0085 100.723 36.9403 100.723 38.0313C100.723 39.1335 100.303 40.0767 99.4618 40.8608C98.6323 41.6335 97.6266 42.0199 96.4448 42.0199Z" fill="white"/>
<path d="M120.688 45.071V51.2074H104.171V45.071H120.688ZM107.631 38.7983H115.966V63.0199C115.966 63.5313 116.046 63.946 116.205 64.2642C116.375 64.571 116.62 64.7926 116.938 64.929C117.256 65.054 117.637 65.1165 118.08 65.1165C118.398 65.1165 118.733 65.0881 119.085 65.0313C119.449 64.9631 119.722 64.9063 119.904 64.8608L121.165 70.8778C120.767 70.9915 120.205 71.1335 119.477 71.304C118.762 71.4744 117.904 71.5824 116.904 71.6278C114.949 71.7188 113.273 71.4915 111.875 70.946C110.489 70.3892 109.426 69.5256 108.688 68.3551C107.96 67.1847 107.608 65.7131 107.631 63.9403V38.7983Z" fill="white"/>
<path d="M147.47 53.0653L139.817 53.2699C139.737 52.7244 139.522 52.2415 139.169 51.821C138.817 51.3892 138.357 51.054 137.789 50.8153C137.232 50.5653 136.584 50.4403 135.845 50.4403C134.879 50.4403 134.056 50.6335 133.374 51.0199C132.703 51.4063 132.374 51.929 132.385 52.5881C132.374 53.0994 132.578 53.5426 132.999 53.9176C133.431 54.2926 134.198 54.5938 135.3 54.821L140.345 55.7756C142.959 56.2756 144.902 57.1051 146.175 58.2642C147.459 59.4233 148.107 60.9574 148.118 62.8665C148.107 64.6619 147.573 66.2244 146.516 67.554C145.47 68.8835 144.039 69.9176 142.22 70.6563C140.402 71.3835 138.323 71.7472 135.982 71.7472C132.243 71.7472 129.294 70.9801 127.135 69.446C124.987 67.9006 123.76 65.8324 123.453 63.2415L131.686 63.0369C131.868 63.9915 132.34 64.7188 133.101 65.2188C133.862 65.7188 134.834 65.9688 136.016 65.9688C137.084 65.9688 137.953 65.7699 138.624 65.3722C139.294 64.9744 139.635 64.446 139.646 63.7869C139.635 63.196 139.374 62.7244 138.862 62.3722C138.351 62.0085 137.55 61.7244 136.459 61.5199L131.891 60.6506C129.266 60.1733 127.311 59.2926 126.027 58.0085C124.743 56.7131 124.107 55.0653 124.118 53.0653C124.107 51.3153 124.573 49.821 125.516 48.5824C126.459 47.3324 127.8 46.3778 129.539 45.7188C131.277 45.0597 133.328 44.7301 135.692 44.7301C139.237 44.7301 142.033 45.4744 144.078 46.9631C146.124 48.4403 147.254 50.4744 147.47 53.0653Z" fill="white"/>
<rect x="0.782867" y="0.752838" width="15" height="15" rx="3.5" fill="#18181B" stroke="#27272A"/>
<rect x="20.7829" y="0.752838" width="15" height="15" rx="3.5" fill="#4C1D95" stroke="#6D28D9"/>
<rect x="40.7829" y="0.752838" width="15" height="15" rx="3.5" fill="#5B21B6" stroke="#7C3AED"/>
<rect x="60.7829" y="0.752838" width="15" height="15" rx="3.5" fill="#6D28D9" stroke="#8B5CF6"/>
<rect x="80.7829" y="0.752838" width="15" height="15" rx="3.5" fill="#7C3AED" stroke="#A78BFA"/>
<rect x="100.783" y="0.752838" width="15" height="15" rx="3.5" fill="#8B5CF6" stroke="#C4B5FD"/>
</svg>
